# xmcd
#
# Track frame offsets: 
#        150
#        15265
#        33068
#        49147
#        64236
#        83913
#        99232
#        117692
#        137995
#        153691
#
# Disc length: 2285 seconds
#
# Revision: 1
# Processed by: cddbd v1.5.2PL0 Copyright (c) Steve Scherf et al.
# Submitted via: ExactAudioCopy v0.95b4
#
DISCID=7f08eb0a
DTITLE=Various Artist - A Celebration Of Blues
DYEAR=1999
DGENRE=Blues
TTITLE0=King Floyd - I Feel Like Dynamite
TTITLE1=Ernie Johnson - Kiss It
TTITLE2=G.C. Cameron - Caught In Your Love Trap
TTITLE3=McKinley Mitchell - You know I've Tried
TTITLE4=Dorothy Moore - Blues In The Night
TTITLE5=Z.Z. Hill - Outside Thang
TTITLE6=Denise LaSalle - You Gotta Pay To Play
TTITLE7=Little Milton - She Never Gets The Blues
TTITLE8=Artie White - All In The Open Now
TTITLE9=Robert Tillman - Weak Fa Ya
EXTD=
EXTT0=
EXTT1=
EXTT2=
EXTT3=
EXTT4=
EXTT5=
EXTT6=
EXTT7=
EXTT8=
EXTT9=
PLAYORDER=
